<mxfile host="Electron" agent="Mozilla/5.0 (Windows NT 10.0; Win64; x64) AppleWebKit/537.36 (KHTML, like Gecko) draw.io/28.0.6 Chrome/138.0.7204.100 Electron/37.2.3 Safari/537.36" version="28.0.6">
  <diagram name="PÃ¡gina-1" id="TpcFOl93VrHveDwrRxYA">
    <mxGraphModel dx="1426" dy="841" grid="1" gridSize="2" guides="1" tooltips="1" connect="1" arrows="1" fold="1" page="1" pageScale="1" pageWidth="827" pageHeight="1169" math="0" shadow="0">
      <root>
        <mxCell id="0" />
        <mxCell id="1" parent="0" />
        <mxCell id="GAcTiK15FZiqcNntg3iz-1" value="Auth server" style="rounded=0;whiteSpace=wrap;html=1;" vertex="1" parent="1">
          <mxGeometry x="556" y="240" width="120" height="60" as="geometry" />
        </mxCell>
        <mxCell id="GAcTiK15FZiqcNntg3iz-2" value="Front" style="rounded=0;whiteSpace=wrap;html=1;" vertex="1" parent="1">
          <mxGeometry x="300" y="140" width="120" height="60" as="geometry" />
        </mxCell>
        <mxCell id="GAcTiK15FZiqcNntg3iz-3" value="Back" style="rounded=0;whiteSpace=wrap;html=1;" vertex="1" parent="1">
          <mxGeometry x="300" y="240" width="120" height="60" as="geometry" />
        </mxCell>
        <mxCell id="GAcTiK15FZiqcNntg3iz-4" value="Database" style="rounded=0;whiteSpace=wrap;html=1;" vertex="1" parent="1">
          <mxGeometry x="300" y="350" width="120" height="60" as="geometry" />
        </mxCell>
        <mxCell id="GAcTiK15FZiqcNntg3iz-5" value="Logs" style="rounded=0;whiteSpace=wrap;html=1;" vertex="1" parent="1">
          <mxGeometry x="230" y="140" width="40" height="280" as="geometry" />
        </mxCell>
        <mxCell id="GAcTiK15FZiqcNntg3iz-6" value="Auth" style="rounded=0;whiteSpace=wrap;html=1;" vertex="1" parent="1">
          <mxGeometry x="170" y="238" width="40" height="180" as="geometry" />
        </mxCell>
        <mxCell id="GAcTiK15FZiqcNntg3iz-7" value="" style="endArrow=classic;html=1;rounded=0;exitX=0.5;exitY=1;exitDx=0;exitDy=0;entryX=0.5;entryY=0;entryDx=0;entryDy=0;startArrow=classic;startFill=1;" edge="1" parent="1" source="GAcTiK15FZiqcNntg3iz-2" target="GAcTiK15FZiqcNntg3iz-3">
          <mxGeometry width="50" height="50" relative="1" as="geometry">
            <mxPoint x="390" y="360" as="sourcePoint" />
            <mxPoint x="440" y="310" as="targetPoint" />
          </mxGeometry>
        </mxCell>
        <mxCell id="GAcTiK15FZiqcNntg3iz-8" value="" style="endArrow=classic;html=1;rounded=0;exitX=0.5;exitY=1;exitDx=0;exitDy=0;startArrow=classic;startFill=1;" edge="1" parent="1" source="GAcTiK15FZiqcNntg3iz-3" target="GAcTiK15FZiqcNntg3iz-4">
          <mxGeometry width="50" height="50" relative="1" as="geometry">
            <mxPoint x="560" y="520" as="sourcePoint" />
            <mxPoint x="560" y="560" as="targetPoint" />
          </mxGeometry>
        </mxCell>
        <mxCell id="GAcTiK15FZiqcNntg3iz-9" value="" style="endArrow=classic;html=1;rounded=0;entryX=1;entryY=0.5;entryDx=0;entryDy=0;startArrow=classic;startFill=1;exitX=0;exitY=0.5;exitDx=0;exitDy=0;" edge="1" parent="1" source="GAcTiK15FZiqcNntg3iz-1" target="GAcTiK15FZiqcNntg3iz-3">
          <mxGeometry width="50" height="50" relative="1" as="geometry">
            <mxPoint x="470" y="310" as="sourcePoint" />
            <mxPoint x="550" y="500" as="targetPoint" />
          </mxGeometry>
        </mxCell>
        <mxCell id="GAcTiK15FZiqcNntg3iz-11" value="Credentials&lt;div&gt;&lt;br&gt;&lt;/div&gt;" style="shape=cylinder3;whiteSpace=wrap;html=1;boundedLbl=1;backgroundOutline=1;size=15;" vertex="1" parent="1">
          <mxGeometry x="578" y="346" width="76" height="80" as="geometry" />
        </mxCell>
        <mxCell id="GAcTiK15FZiqcNntg3iz-12" value="" style="endArrow=classic;html=1;rounded=0;exitX=0.5;exitY=1;exitDx=0;exitDy=0;entryX=0.5;entryY=0;entryDx=0;entryDy=0;startArrow=classic;startFill=1;entryPerimeter=0;" edge="1" parent="1" source="GAcTiK15FZiqcNntg3iz-1" target="GAcTiK15FZiqcNntg3iz-11">
          <mxGeometry width="50" height="50" relative="1" as="geometry">
            <mxPoint x="520" y="562" as="sourcePoint" />
            <mxPoint x="520" y="602" as="targetPoint" />
          </mxGeometry>
        </mxCell>
        <mxCell id="GAcTiK15FZiqcNntg3iz-13" value="App" style="shape=cylinder3;whiteSpace=wrap;html=1;boundedLbl=1;backgroundOutline=1;size=15;" vertex="1" parent="1">
          <mxGeometry x="306" y="460" width="110" height="80" as="geometry" />
        </mxCell>
        <mxCell id="GAcTiK15FZiqcNntg3iz-14" value="" style="endArrow=classic;html=1;rounded=0;exitX=0.5;exitY=1;exitDx=0;exitDy=0;entryX=0.5;entryY=0;entryDx=0;entryDy=0;startArrow=classic;startFill=1;entryPerimeter=0;" edge="1" parent="1" source="GAcTiK15FZiqcNntg3iz-4" target="GAcTiK15FZiqcNntg3iz-13">
          <mxGeometry width="50" height="50" relative="1" as="geometry">
            <mxPoint x="574" y="584" as="sourcePoint" />
            <mxPoint x="574" y="624" as="targetPoint" />
          </mxGeometry>
        </mxCell>
        <mxCell id="GAcTiK15FZiqcNntg3iz-15" value="Logs" style="ellipse;shape=cloud;whiteSpace=wrap;html=1;" vertex="1" parent="1">
          <mxGeometry x="184" y="14" width="120" height="80" as="geometry" />
        </mxCell>
        <mxCell id="GAcTiK15FZiqcNntg3iz-16" value="" style="endArrow=classic;html=1;rounded=0;entryX=0.55;entryY=0.95;entryDx=0;entryDy=0;entryPerimeter=0;" edge="1" parent="1" source="GAcTiK15FZiqcNntg3iz-5" target="GAcTiK15FZiqcNntg3iz-15">
          <mxGeometry width="50" height="50" relative="1" as="geometry">
            <mxPoint x="388" y="358" as="sourcePoint" />
            <mxPoint x="438" y="308" as="targetPoint" />
          </mxGeometry>
        </mxCell>
        <mxCell id="GAcTiK15FZiqcNntg3iz-17" value="" style="endArrow=none;dashed=1;html=1;dashPattern=1 3;strokeWidth=2;rounded=0;" edge="1" parent="1">
          <mxGeometry width="50" height="50" relative="1" as="geometry">
            <mxPoint x="498" y="542" as="sourcePoint" />
            <mxPoint x="496" y="92" as="targetPoint" />
          </mxGeometry>
        </mxCell>
      </root>
    </mxGraphModel>
  </diagram>
</mxfile>
